<svg xmlns="http://www.w3.org/2000/svg" viewBox="0 0 512 512" role="img" aria-labelledby="title desc"><title id="title">GoreeCloud Music</title><desc id="desc">A rounded blue-violet tile with a white music note and Resonance wave rings.</desc><defs><linearGradient id="g" x1="52" y1="48" x2="458" y2="464" gradientUnits="userSpaceOnUse"><stop stop-color="#1D4ED8"/><stop offset="1" stop-color="#7C3AED"/></linearGradient></defs><rect x="24" y="24" width="464" height="464" rx="112" fill="url(#g)"/><path d="M292 132v190c0 33-27 60-60 60s-60-27-60-60 27-60 60-60c10 0 20 2 29 7V165l129-26v148c0 33-27 60-60 60s-60-27-60-60 27-60 60-60c10 0 20 2 29 7V113L292 132Z" fill="#fff"/><path d="M124 181c-21 20-34 47-34 77s13 58 34 78M388 181c21 20 34 47 34 77s-13 58-34 78" fill="none" stroke="#fff" stroke-width="18" stroke-linecap="round" opacity=".75"/></svg>